<?xml version="1.0" encoding="UTF-8"?>
<svg xmlns="http://www.w3.org/2000/svg" width="200" height="35" viewBox="0 0 200 35" fill="none">
  <path d="M47.1303 11.6351H49.9639V20.5057C49.9639 22.1209 49.4898 23.3384 48.5392 24.1585C47.5886 24.9785 46.2385 25.3897 44.4864 25.3897C42.8675 25.3897 41.5873 25.0013 40.6435 24.2289C39.6997 23.4543 39.2301 22.2662 39.2301 20.6648V11.6351H42.0637V20.4035C42.0637 21.2304 42.2714 21.8846 42.6869 22.3662C43.1023 22.8478 43.6916 23.0863 44.4548 23.0863C46.2362 23.0863 47.128 22.2254 47.128 20.5035V11.6351H47.1303Z" fill="#3B3F42"></path>
  <path d="M57.9454 24.9308L55.7733 20.5057L54.5067 21.8073V24.9308H51.8943V11.4761H54.5067V18.8247L57.7625 15.0811H60.9596L57.6428 18.7043L60.8783 24.9308H57.9454Z" fill="#3B3F42"></path>
  <path d="M62.6078 24.9308V15.0788H65.0599V16.251C65.2744 15.9148 65.4979 15.6536 65.7327 15.465C65.9675 15.2765 66.2091 15.1334 66.4575 15.0311C66.7058 14.9312 66.9565 14.8653 67.2116 14.8403C67.4667 14.8131 67.7264 14.7994 67.9951 14.7994H68.336V17.4822C68.0944 17.4413 67.8528 17.4231 67.6112 17.4231C66.0172 17.4231 65.2202 18.2182 65.2202 19.8061V24.9308H62.6078Z" fill="#3B3F42"></path>
  <path d="M76.0556 24.9307C75.9766 24.6763 75.9224 24.3833 75.8953 24.0494C75.586 24.3969 75.1773 24.674 74.6693 24.8808C74.159 25.0875 73.5697 25.192 72.9014 25.192C71.7634 25.192 70.928 24.9421 70.3997 24.4423C69.8713 23.9426 69.6049 23.2906 69.6049 22.491C69.6049 21.7846 69.7178 21.2189 69.9459 20.7987C70.1739 20.3784 70.4877 20.0491 70.8896 19.8083C71.2915 19.5675 71.7702 19.3903 72.3279 19.2767C72.8833 19.1631 73.4907 19.0609 74.1477 18.9655C74.8047 18.8724 75.2473 18.7497 75.4753 18.5952C75.7034 18.443 75.8163 18.1909 75.8163 17.8456C75.8163 17.5253 75.665 17.2754 75.3647 17.0937C75.0644 16.9142 74.658 16.8234 74.1477 16.8234C73.5449 16.8234 73.1136 16.9574 72.8517 17.2232C72.5898 17.4912 72.425 17.8433 72.3595 18.284H69.9255C69.9391 17.7775 70.0226 17.3095 70.1762 16.8824C70.3297 16.4554 70.5781 16.0874 70.919 15.7807C71.2599 15.474 71.7047 15.2378 72.2534 15.0697C72.802 14.9039 73.4704 14.8198 74.2583 14.8198C75.0328 14.8198 75.6898 14.9061 76.2317 15.0811C76.7736 15.256 77.2071 15.5058 77.5345 15.8307C77.8619 16.1578 78.0989 16.5644 78.2457 17.0528C78.3925 17.5412 78.467 18.0909 78.467 18.7043V24.9307H76.0556ZM75.875 20.1059C75.7417 20.2399 75.5453 20.3466 75.2924 20.4261C75.0373 20.5057 74.6693 20.5942 74.1861 20.6874C73.4365 20.835 72.9194 21.0213 72.6372 21.2485C72.355 21.4756 72.215 21.8027 72.215 22.2298C72.215 22.9635 72.6372 23.3315 73.4816 23.3315C73.8158 23.3315 74.1274 23.2747 74.4164 23.1612C74.7054 23.0476 74.9515 22.8954 75.1592 22.7C75.3669 22.5069 75.534 22.2798 75.6627 22.0185C75.7892 21.7573 75.8546 21.4824 75.8546 21.1871L75.875 20.1059Z" fill="#3B3F42"></path>
  <path d="M80.4787 13.8976V11.4761H83.091V13.8999H80.4787V13.8976ZM80.4787 24.9308V15.0788H83.091V24.9285H80.4787V24.9308Z" fill="#3B3F42"></path>
  <path d="M91.4338 24.9308V18.9633C91.4338 18.2023 91.3051 17.6889 91.0522 17.4209C90.7971 17.1551 90.3613 17.0211 89.7449 17.0211C88.3902 17.0211 87.7151 17.7752 87.7151 19.2836V24.9308H85.1028V15.0788H87.5954V16.5168C87.9025 15.9511 88.3112 15.5241 88.8169 15.2333C89.3227 14.9425 89.9797 14.7994 90.7813 14.7994C91.2486 14.7994 91.6821 14.8699 92.084 15.0107C92.4859 15.1515 92.8291 15.3605 93.1159 15.6422C93.4026 15.9239 93.6307 16.2669 93.7977 16.6758C93.9648 17.0847 94.0484 17.5549 94.0484 18.091V24.9308H91.4338Z" fill="#3B3F42"></path>
  <path d="M96.0555 13.8976V11.4761H98.6679V13.8999H96.0555V13.8976ZM96.0555 24.9308V15.0788H98.6679V24.9285H96.0555V24.9308Z" fill="#3B3F42"></path>
  <path d="M106.83 24.9307C106.751 24.6763 106.697 24.3833 106.67 24.0494C106.36 24.3969 105.952 24.674 105.444 24.8808C104.933 25.0875 104.344 25.192 103.676 25.192C102.538 25.192 101.702 24.9421 101.174 24.4423C100.646 23.9426 100.379 23.2906 100.379 22.491C100.379 21.7846 100.492 21.2189 100.72 20.7987C100.948 20.3784 101.262 20.0491 101.664 19.8083C102.066 19.5675 102.545 19.3903 103.102 19.2767C103.658 19.1631 104.265 19.0609 104.922 18.9655C105.579 18.8724 106.022 18.7497 106.25 18.5952C106.478 18.443 106.591 18.1909 106.591 17.8456C106.591 17.5253 106.439 17.2754 106.139 17.0937C105.839 16.9142 105.432 16.8234 104.922 16.8234C104.319 16.8234 103.888 16.9574 103.626 17.2232C103.364 17.4912 103.199 17.8433 103.134 18.284H100.7C100.713 17.7775 100.797 17.3095 100.951 16.8824C101.104 16.4554 101.352 16.0874 101.693 15.7807C102.034 15.474 102.479 15.2378 103.028 15.0697C103.576 14.9039 104.245 14.8198 105.033 14.8198C105.807 14.8198 106.464 14.9061 107.006 15.0811C107.548 15.256 107.982 15.5058 108.309 15.8307C108.636 16.1578 108.873 16.5644 109.02 17.0528C109.167 17.5412 109.241 18.0909 109.241 18.7043V24.9307H106.83ZM106.649 20.1059C106.516 20.2399 106.32 20.3466 106.067 20.4261C105.812 20.5057 105.444 20.5942 104.961 20.6874C104.211 20.835 103.694 21.0213 103.412 21.2485C103.129 21.4756 102.989 21.8027 102.989 22.2298C102.989 22.9635 103.412 23.3315 104.256 23.3315C104.59 23.3315 104.902 23.2747 105.191 23.1612C105.48 23.0476 105.726 22.8954 105.934 22.7C106.141 22.5069 106.308 22.2798 106.437 22.0185C106.564 21.7573 106.629 21.4824 106.629 21.1871L106.649 20.1059Z" fill="#3B3F42"></path>
  <path d="M117.544 24.9308V18.9633C117.544 18.2023 117.415 17.6889 117.162 17.4209C116.907 17.1551 116.471 17.0211 115.855 17.0211C114.5 17.0211 113.825 17.7752 113.825 19.2836V24.9308H111.213V15.0788H113.705V16.5168C114.012 15.9511 114.421 15.5241 114.927 15.2333C115.432 14.9425 116.089 14.7994 116.891 14.7994C117.358 14.7994 117.792 14.8699 118.194 15.0107C118.596 15.1515 118.939 15.3605 119.226 15.6422C119.512 15.9239 119.74 16.2669 119.907 16.6758C120.075 17.0847 120.158 17.5549 120.158 18.091V24.9308H117.544Z" fill="#3B3F42"></path>
  <path d="M126.731 24.9308V11.6351H129.526V22.507H136.139V24.9308H126.731Z" fill="#3B3F42"></path>
  <path d="M139.957 20.6852C139.998 21.4325 140.215 22.0277 140.61 22.4661C141.005 22.9068 141.524 23.1272 142.168 23.1272C142.597 23.1272 142.976 23.0295 143.303 22.8364C143.631 22.6433 143.843 22.373 143.935 22.0254H146.629C146.32 23.0408 145.785 23.82 145.021 24.3675C144.258 24.9149 143.346 25.1875 142.287 25.1875C138.991 25.1875 137.343 23.3997 137.343 19.822C137.343 19.061 137.449 18.3727 137.663 17.7594C137.878 17.146 138.189 16.619 138.598 16.1783C139.007 15.7376 139.506 15.4014 140.095 15.1675C140.684 14.9335 141.361 14.8176 142.125 14.8176C143.653 14.8176 144.809 15.306 145.593 16.2783C146.376 17.2528 146.769 18.7202 146.769 20.6829H139.957V20.6852ZM144.078 19.0451C144.064 18.6839 144.001 18.3681 143.886 18.0933C143.773 17.8207 143.622 17.5935 143.434 17.4118C143.247 17.2323 143.032 17.0983 142.791 17.012C142.549 16.9257 142.301 16.8825 142.048 16.8825C141.526 16.8825 141.072 17.0733 140.691 17.4527C140.309 17.832 140.09 18.3636 140.038 19.0451H144.078Z" fill="#3B3F42"></path>
  <path d="M154.331 18.0637C154.263 17.6094 154.093 17.28 153.818 17.0733C153.543 16.8665 153.125 16.762 152.563 16.762C152.025 16.762 151.621 16.8257 151.346 16.9529C151.07 17.0801 150.932 17.2959 150.932 17.6025C150.932 17.8706 151.07 18.0841 151.346 18.2431C151.621 18.4044 152.018 18.5566 152.542 18.7043C153.4 18.9451 154.123 19.1472 154.714 19.3153C155.304 19.4834 155.776 19.6788 156.132 19.9059C156.487 20.1331 156.742 20.4171 156.895 20.7578C157.049 21.0985 157.126 21.5551 157.126 22.1298C157.126 23.0112 156.758 23.7427 156.019 24.3219C155.281 24.9035 154.191 25.192 152.743 25.192C152.032 25.192 151.389 25.1125 150.813 24.9512C150.237 24.7899 149.745 24.5605 149.336 24.2606C148.927 23.9608 148.611 23.5996 148.392 23.1793C148.171 22.7591 148.054 22.2889 148.04 21.7687H150.734C150.734 22.2412 150.919 22.6069 151.287 22.8659C151.655 23.1225 152.134 23.252 152.725 23.252C153.222 23.252 153.646 23.1748 154.001 23.0203C154.355 22.8658 154.534 22.6296 154.534 22.307C154.534 21.9458 154.403 21.6846 154.141 21.5233C153.879 21.362 153.482 21.2235 152.944 21.1031C151.98 20.8896 151.201 20.6647 150.612 20.4307C150.023 20.1967 149.562 19.9378 149.235 19.6583C148.905 19.3767 148.686 19.07 148.571 18.7361C148.458 18.4021 148.399 18.0273 148.399 17.6116C148.399 17.2368 148.476 16.8824 148.629 16.5485C148.783 16.2146 149.029 15.9193 149.363 15.6649C149.697 15.4104 150.133 15.206 150.671 15.0515C151.206 14.8971 151.863 14.8198 152.642 14.8198C154.062 14.8198 155.1 15.106 155.757 15.6808C156.415 16.2555 156.776 17.0483 156.844 18.0637H154.331Z" fill="#3B3F42"></path>
  <path d="M164.662 18.0637C164.595 17.6094 164.425 17.28 164.15 17.0733C163.874 16.8665 163.457 16.762 162.895 16.762C162.357 16.762 161.953 16.8257 161.678 16.9529C161.402 17.0801 161.264 17.2959 161.264 17.6025C161.264 17.8706 161.402 18.0841 161.678 18.2431C161.953 18.4044 162.35 18.5566 162.874 18.7043C163.732 18.9451 164.455 19.1472 165.046 19.3153C165.636 19.4834 166.107 19.6788 166.464 19.9059C166.819 20.1331 167.074 20.4171 167.227 20.7578C167.381 21.0985 167.458 21.5551 167.458 22.1298C167.458 23.0112 167.09 23.7427 166.351 24.3219C165.613 24.9035 164.522 25.192 163.075 25.192C162.364 25.192 161.72 25.1125 161.145 24.9512C160.569 24.7899 160.077 24.5605 159.668 24.2606C159.259 23.9608 158.943 23.5996 158.724 23.1793C158.503 22.7591 158.386 22.2889 158.372 21.7687H161.066C161.066 22.2412 161.251 22.6069 161.619 22.8659C161.987 23.1225 162.466 23.252 163.057 23.252C163.554 23.252 163.978 23.1748 164.333 23.0203C164.687 22.8658 164.866 22.6296 164.866 22.307C164.866 21.9458 164.735 21.6846 164.473 21.5233C164.211 21.362 163.813 21.2235 163.276 21.1031C162.312 20.8896 161.533 20.6647 160.944 20.4307C160.354 20.1967 159.894 19.9378 159.566 19.6583C159.237 19.3767 159.018 19.07 158.903 18.7361C158.79 18.4021 158.731 18.0273 158.731 17.6116C158.731 17.2368 158.808 16.8824 158.961 16.5485C159.115 16.2146 159.361 15.9193 159.695 15.6649C160.029 15.4104 160.465 15.206 161.002 15.0515C161.538 14.8971 162.195 14.8198 162.974 14.8198C164.394 14.8198 165.432 15.106 166.089 15.6808C166.746 16.2555 167.108 17.0483 167.175 18.0637H164.662Z" fill="#3B3F42"></path>
  <path d="M173.757 25.1898C172.953 25.1898 172.24 25.0625 171.61 24.8081C170.98 24.5537 170.449 24.1993 170.016 23.745C169.582 23.2907 169.25 22.741 169.022 22.1004C168.794 21.4575 168.681 20.7556 168.681 19.9946C168.681 19.22 168.799 18.5112 169.034 17.8684C169.268 17.2255 169.605 16.6781 170.047 16.2237C170.488 15.7694 171.021 15.4173 171.641 15.1697C172.262 14.9221 172.969 14.7994 173.759 14.7994C174.534 14.7994 175.229 14.9244 175.846 15.1697C176.462 15.4173 176.986 15.7649 177.422 16.2124C177.855 16.6599 178.191 17.2051 178.424 17.8479C178.659 18.4908 178.776 19.2064 178.776 19.9946C178.776 20.7828 178.659 21.4961 178.424 22.1322C178.189 22.7682 177.855 23.3134 177.422 23.7677C176.986 24.2221 176.46 24.5742 175.837 24.8218C175.211 25.0671 174.52 25.1898 173.757 25.1898ZM173.768 23.009C175.362 23.009 176.159 22.0072 176.159 20.006C176.159 18.0183 175.362 17.0233 173.768 17.0233C172.174 17.0233 171.377 18.0183 171.377 20.006C171.375 22.0072 172.172 23.009 173.768 23.009Z" fill="#3B3F42"></path>
  <path d="M186.774 24.9308V18.9633C186.774 18.2023 186.645 17.6889 186.392 17.4209C186.137 17.1551 185.701 17.0211 185.085 17.0211C183.73 17.0211 183.055 17.7752 183.055 19.2836V24.9308H180.443V15.0788H182.935V16.5168C183.242 15.9511 183.651 15.5241 184.157 15.2333C184.663 14.9425 185.32 14.7994 186.121 14.7994C186.588 14.7994 187.022 14.8699 187.424 15.0107C187.826 15.1515 188.169 15.3605 188.456 15.6422C188.742 15.9239 188.971 16.2669 189.138 16.6758C189.305 17.0847 189.388 17.5549 189.388 18.091V24.9308H186.774Z" fill="#3B3F42"></path>
  <path d="M197.205 18.0637C197.137 17.6094 196.968 17.28 196.692 17.0733C196.417 16.8665 195.999 16.762 195.437 16.762C194.9 16.762 194.495 16.8257 194.22 16.9529C193.944 17.0801 193.807 17.2959 193.807 17.6025C193.807 17.8706 193.944 18.0841 194.22 18.2431C194.495 18.4044 194.893 18.5566 195.417 18.7043C196.275 18.9451 196.997 19.1472 197.589 19.3153C198.178 19.4834 198.65 19.6788 199.007 19.9059C199.361 20.1331 199.616 20.4171 199.77 20.7578C199.923 21.0985 200 21.5551 200 22.1298C200 23.0112 199.632 23.7427 198.894 24.3219C198.155 24.9035 197.065 25.192 195.618 25.192C194.906 25.192 194.263 25.1125 193.687 24.9512C193.111 24.7899 192.619 24.5605 192.21 24.2606C191.802 23.9608 191.486 23.5996 191.267 23.1793C191.045 22.7591 190.928 22.2889 190.914 21.7687H193.608C193.608 22.2412 193.793 22.6069 194.161 22.8659C194.529 23.1225 195.008 23.252 195.599 23.252C196.096 23.252 196.521 23.1748 196.875 23.0203C197.23 22.8658 197.408 22.6296 197.408 22.307C197.408 21.9458 197.277 21.6846 197.015 21.5233C196.753 21.362 196.356 21.2235 195.818 21.1031C194.854 20.8896 194.075 20.6647 193.486 20.4307C192.897 20.1967 192.436 19.9378 192.109 19.6583C191.779 19.3767 191.56 19.07 191.445 18.7361C191.332 18.4021 191.273 18.0273 191.273 17.6116C191.273 17.2368 191.35 16.8824 191.504 16.5485C191.657 16.2146 191.903 15.9193 192.238 15.6649C192.572 15.4104 193.007 15.206 193.545 15.0515C194.08 14.8971 194.737 14.8198 195.516 14.8198C196.936 14.8198 197.975 15.106 198.632 15.6808C199.289 16.2555 199.65 17.0483 199.718 18.0637H197.205Z" fill="#3B3F42"></path>
  <path d="M21.9011 7.07146H13.8632V1.25842L6.60647 7.07146H5.29692C3.08423 7.07146 1.2915 8.93872 1.2915 11.2399V18.8293C1.2915 21.1304 3.08423 22.9977 5.29692 22.9977H21.9011C24.1138 22.9977 25.9065 21.1304 25.9065 18.8293V11.2399C25.9065 8.93645 24.1138 7.07146 21.9011 7.07146Z" fill="#275EC3"></path>
  <path d="M27.4306 11.6328H10.8264C8.61371 11.6328 6.82098 13.5001 6.82098 15.8012V23.3906C6.82098 25.6918 8.61371 27.559 10.8264 27.559H18.8643V33.3721L26.1211 27.559H27.4306C29.6433 27.559 31.436 25.6918 31.436 23.3906V15.8012C31.436 13.5001 29.6433 11.6328 27.4306 11.6328Z" fill="#FCC812"></path>
</svg>
